<svg height="1758" width="720" xmlns="http://www.w3.org/2000/svg">
<rect height="1758" fill="#555" width="720"></rect>
<text fill="#7f7" font-family="Courier New" font-size="12" xml:space="preserve">
<tspan x="10" y="26">7 megabytes installed</tspan>
<tspan x="10" y="42"></tspan>
<tspan x="10" y="58">node_modules</tspan>
<tspan x="10" y="74">└─┬ beefy@2.1.8 </tspan>
<tspan x="10" y="90">  ├── ansicolors@0.3.2 </tspan>
<tspan x="10" y="106">  ├─┬ chokidar@1.6.1 </tspan>
<tspan x="10" y="122">  │ ├─┬ anymatch@1.3.0 </tspan>
<tspan x="10" y="138">  │ │ ├── arrify@1.0.1 </tspan>
<tspan x="10" y="154">  │ │ └─┬ micromatch@2.3.11 </tspan>
<tspan x="10" y="170">  │ │   ├─┬ arr-diff@2.0.0 </tspan>
<tspan x="10" y="186">  │ │   │ └── arr-flatten@1.0.3 </tspan>
<tspan x="10" y="202">  │ │   ├── array-unique@0.2.1 </tspan>
<tspan x="10" y="218">  │ │   ├─┬ braces@1.8.5 </tspan>
<tspan x="10" y="234">  │ │   │ ├─┬ expand-range@1.8.2 </tspan>
<tspan x="10" y="250">  │ │   │ │ └─┬ fill-range@2.2.3 </tspan>
<tspan x="10" y="266">  │ │   │ │   ├── is-number@2.1.0 </tspan>
<tspan x="10" y="282">  │ │   │ │   ├── isobject@2.1.0 </tspan>
<tspan x="10" y="298">  │ │   │ │   ├── randomatic@1.1.6 </tspan>
<tspan x="10" y="314">  │ │   │ │   └── repeat-string@1.6.1 </tspan>
<tspan x="10" y="330">  │ │   │ ├── preserve@0.2.0 </tspan>
<tspan x="10" y="346">  │ │   │ └── repeat-element@1.1.2 </tspan>
<tspan x="10" y="362">  │ │   ├─┬ expand-brackets@0.1.5 </tspan>
<tspan x="10" y="378">  │ │   │ └── is-posix-bracket@0.1.1 </tspan>
<tspan x="10" y="394">  │ │   ├── extglob@0.3.2 </tspan>
<tspan x="10" y="410">  │ │   ├── filename-regex@2.0.0 </tspan>
<tspan x="10" y="426">  │ │   ├─┬ kind-of@3.1.0 </tspan>
<tspan x="10" y="442">  │ │   │ └── is-buffer@1.1.5 </tspan>
<tspan x="10" y="458">  │ │   ├─┬ normalize-path@2.1.1 </tspan>
<tspan x="10" y="474">  │ │   │ └── remove-trailing-separator@1.0.1 </tspan>
<tspan x="10" y="490">  │ │   ├─┬ object.omit@2.0.1 </tspan>
<tspan x="10" y="506">  │ │   │ ├─┬ for-own@0.1.5 </tspan>
<tspan x="10" y="522">  │ │   │ │ └── for-in@1.0.2 </tspan>
<tspan x="10" y="538">  │ │   │ └── is-extendable@0.1.1 </tspan>
<tspan x="10" y="554">  │ │   ├─┬ parse-glob@3.0.4 </tspan>
<tspan x="10" y="570">  │ │   │ ├── glob-base@0.3.0 </tspan>
<tspan x="10" y="586">  │ │   │ └── is-dotfile@1.0.2 </tspan>
<tspan x="10" y="602">  │ │   └─┬ regex-cache@0.4.3 </tspan>
<tspan x="10" y="618">  │ │     ├── is-equal-shallow@0.1.3 </tspan>
<tspan x="10" y="634">  │ │     └── is-primitive@2.0.0 </tspan>
<tspan x="10" y="650">  │ ├── async-each@1.0.1 </tspan>
<tspan x="10" y="666">  │ ├── glob-parent@2.0.0 </tspan>
<tspan x="10" y="682">  │ ├── inherits@2.0.3 </tspan>
<tspan x="10" y="698">  │ ├─┬ is-binary-path@1.0.1 </tspan>
<tspan x="10" y="714">  │ │ └── binary-extensions@1.8.0 </tspan>
<tspan x="10" y="730">  │ ├─┬ is-glob@2.0.1 </tspan>
<tspan x="10" y="746">  │ │ └── is-extglob@1.0.0 </tspan>
<tspan x="10" y="762">  │ ├── path-is-absolute@1.0.1 </tspan>
<tspan x="10" y="778">  │ └─┬ readdirp@2.1.0 </tspan>
<tspan x="10" y="794">  │   ├── graceful-fs@4.1.11 </tspan>
<tspan x="10" y="810">  │   ├─┬ minimatch@3.0.3 </tspan>
<tspan x="10" y="826">  │   │ └─┬ brace-expansion@1.1.7 </tspan>
<tspan x="10" y="842">  │   │   ├── balanced-match@0.4.2 </tspan>
<tspan x="10" y="858">  │   │   └── concat-map@0.0.1 </tspan>
<tspan x="10" y="874">  │   ├── readable-stream@2.2.9 </tspan>
<tspan x="10" y="890">  │   └── set-immediate-shim@1.0.1 </tspan>
<tspan x="10" y="906">  ├─┬ concat-stream@1.6.0 </tspan>
<tspan x="10" y="922">  │ ├─┬ readable-stream@2.2.9 </tspan>
<tspan x="10" y="938">  │ │ ├── buffer-shims@1.0.0 </tspan>
<tspan x="10" y="954">  │ │ ├── isarray@1.0.0 </tspan>
<tspan x="10" y="970">  │ │ ├── process-nextick-args@1.0.7 </tspan>
<tspan x="10" y="986">  │ │ ├── string_decoder@1.0.0 </tspan>
<tspan x="10" y="1002">  │ │ └── util-deprecate@1.0.2 </tspan>
<tspan x="10" y="1018">  │ └── typedarray@0.0.6 </tspan>
<tspan x="10" y="1034">  ├── find-global-packages@0.0.1 </tspan>
<tspan x="10" y="1050">  ├── ignorepatterns@1.1.0 </tspan>
<tspan x="10" y="1066">  ├── leftpad@0.0.0 </tspan>
<tspan x="10" y="1082">  ├── mime@1.2.11 </tspan>
<tspan x="10" y="1098">  ├── minimist@0.0.8 </tspan>
<tspan x="10" y="1114">  ├── open@0.0.3 </tspan>
<tspan x="10" y="1130">  ├─┬ portfinder@0.2.1 </tspan>
<tspan x="10" y="1146">  │ └── mkdirp@0.0.7 </tspan>
<tspan x="10" y="1162">  ├── pretty-bytes@0.1.2 </tspan>
<tspan x="10" y="1178">  ├─┬ readable-stream@1.1.14 </tspan>
<tspan x="10" y="1194">  │ ├── core-util-is@1.0.2 </tspan>
<tspan x="10" y="1210">  │ ├── isarray@0.0.1 </tspan>
<tspan x="10" y="1226">  │ └── string_decoder@0.10.31 </tspan>
<tspan x="10" y="1242">  ├── resolve@0.6.3 </tspan>
<tspan x="10" y="1258">  ├── response-stream@0.0.0 </tspan>
<tspan x="10" y="1274">  ├─┬ script-injector@1.0.0 </tspan>
<tspan x="10" y="1290">  │ ├── duplexer2@0.0.2 </tspan>
<tspan x="10" y="1306">  │ ├─┬ through2@0.6.5 </tspan>
<tspan x="10" y="1322">  │ │ ├─┬ readable-stream@1.0.34 </tspan>
<tspan x="10" y="1338">  │ │ │ ├── isarray@0.0.1 </tspan>
<tspan x="10" y="1354">  │ │ │ └── string_decoder@0.10.31 </tspan>
<tspan x="10" y="1370">  │ │ └── xtend@4.0.1 </tspan>
<tspan x="10" y="1386">  │ └─┬ trumpet@1.7.2 </tspan>
<tspan x="10" y="1402">  │   ├─┬ html-select@2.3.24 </tspan>
<tspan x="10" y="1418">  │   │ ├── cssauron@1.4.0 </tspan>
<tspan x="10" y="1434">  │   │ ├── split@0.3.3 </tspan>
<tspan x="10" y="1450">  │   │ ├─┬ stream-splicer@1.3.2 </tspan>
<tspan x="10" y="1466">  │   │ │ ├── indexof@0.0.1 </tspan>
<tspan x="10" y="1482">  │   │ │ ├── isarray@0.0.1 </tspan>
<tspan x="10" y="1498">  │   │ │ ├── readable-wrap@1.0.0 </tspan>
<tspan x="10" y="1514">  │   │ │ └─┬ through2@1.1.1 </tspan>
<tspan x="10" y="1530">  │   │ │   └── xtend@4.0.1 </tspan>
<tspan x="10" y="1546">  │   │ └─┬ through2@1.1.1 </tspan>
<tspan x="10" y="1562">  │   │   └── xtend@4.0.1 </tspan>
<tspan x="10" y="1578">  │   ├─┬ html-tokenize@1.2.5 </tspan>
<tspan x="10" y="1594">  │   │ ├─┬ readable-stream@1.0.34 </tspan>
<tspan x="10" y="1610">  │   │ │ ├── isarray@0.0.1 </tspan>
<tspan x="10" y="1626">  │   │ │ └── string_decoder@0.10.31 </tspan>
<tspan x="10" y="1642">  │   │ └── through2@0.4.2 </tspan>
<tspan x="10" y="1658">  │   └─┬ through2@1.1.1 </tspan>
<tspan x="10" y="1674">  │     └── xtend@4.0.1 </tspan>
<tspan x="10" y="1690">  ├── through@2.2.7 </tspan>
<tspan x="10" y="1706">  ├── which@1.0.9 </tspan>
<tspan x="10" y="1722">  └─┬ xtend@2.1.2 </tspan>
<tspan x="10" y="1738">    └── object-keys@0.4.0</tspan>
</text>
</svg>
